# xmcd CD database file
#
# Track frame offsets:
#	150
#	14485
#	29060
#	48000
#	63125
#	79730
#	92282
#	108480
#	129862
#	142432
#	157430
#	169722
#	184477
#	202577
#
# Disc length: 2887 seconds
#
# Revision: 0
# Processed by: cddbd v1.5.1PL2 Copyright (c) Steve Scherf et al.
# Submitted via: CDex 1.51
#
DISCID=bc0b450e
DTITLE=Bruce McMillan - Old Spot Mill
DYEAR=1994
DGENRE=Country
TTITLE0=The Old Spot Mill
TTITLE1=ABurnt Out Love Affair
TTITLE2=Old Shep
TTITLE3=Heaven Is My Woman's Love
TTITLE4=Seven Spanish Angels
TTITLE5=You're My Best Friend
TTITLE6=Ghost Riders In The Sky
TTITLE7=Bushfire
TTITLE8=Have You Ever Been Lonely
TTITLE9=Thistles On The Hillside
TTITLE10=You're The Reason
TTITLE11=I've Had A Beautiful Time
TTITLE12=Little Boy Lost
TTITLE13=Six Days On The Road
EXTD=YEAR: 1994
EXTT0=
EXTT1=
EXTT2=
EXTT3=
EXTT4=
EXTT5=
EXTT6=
EXTT7=
EXTT8=
EXTT9=
EXTT10=
EXTT11=
EXTT12=
EXTT13=
PLAYORDER=
